# xmcd
#
# Track frame offsets:
#	150
#	17909
#	33371
#	55533
#	72273
#	96139
#	110843
#	125587
#	142927
#	159919
#	176879
#	193954
#	207050
#	230103
#	249567
#	265352
#	283792
#	303087
#	318463
#	337821
#
# Disc length: 4674 seconds
#
# Revision: 3
# Processed by: cddbd v1.5.2PL0 Copyright (c) Steve Scherf et al.
# Submitted via: dBpowerAMP V4.0
#
DISCID=25124014
DTITLE=Various Artist - Nu Urban Traxx Vol. 209 CAN
DYEAR=2014
DGENRE=Urban
TTITLE0=Beyonce ft. Nicki Minaj - Flawless [Remix]
TTITLE1=Nicki Minaj - Anaconda
TTITLE2=DJ Khaled ft. Chris Brown, Future, Jeremih and August Alsina - Hold You Down
TTITLE3=Trey Songz ft. Nicki Minaj - Touchin, Lovin
TTITLE4=Young Thug ft. Nicki Minaj - Danny Glover
TTITLE5=Snootie Wild ft. K Camp - Made Me
TTITLE6=Bobby Shmurda - Hot Boy
TTITLE7=Johnny Gill - Behind Closed Doors
TTITLE8=Keyshia Cole - She
TTITLE9=Yo Gotti - Errrbody
TTITLE10=T-Pain - Drankin' Patna
TTITLE11=K Camp - Blessing
TTITLE12=Lil' Wayne ft. Drake - Grindin'
TTITLE13=Elle Varner ft. A$ap Ferg - Don't Wanna Dance
TTITLE14=French Montana - Don't Panic
TTITLE15=August Alsina - No Love
TTITLE16=Disclosure ft. Sam Smith - Latch
TTITLE17=Rick Ross - Supreme
TTITLE18=Jennifer Hudson ft. R. Kelly - It's Your World
TTITLE19=Fifth Harmony - Bo$$
EXTD=
EXTT0=
EXTT1=
EXTT2=
EXTT3=
EXTT4=
EXTT5=
EXTT6=
EXTT7=
EXTT8=
EXTT9=
EXTT10=
EXTT11=
EXTT12=
EXTT13=
EXTT14=
EXTT15=
EXTT16=
EXTT17=
EXTT18=
EXTT19=
PLAYORDER=
